<svg xmlns="http://www.w3.org/2000/svg" width="386.667" height="386.667" preserveAspectRatio="xMidYMid meet" version="1.0" viewBox="0 0 290 290"><metadata>Created by potrace 1.14, written by Peter Selinger 2001-2017</metadata><g fill="#000" stroke="none"><path d="M2215 2497 c-20 -6 -37 -21 -50 -45 -11 -20 -36 -46 -56 -56 -20 -11 -44 -35 -55 -55 -10 -20 -33 -42 -49 -49 -17 -8 -40 -30 -50 -50 -11 -21 -34 -43 -51 -51 -18 -8 -37 -27 -45 -45 -8 -17 -30 -40 -51 -51 -20 -11 -43 -34 -52 -52 -9 -19 -30 -40 -50 -49 -19 -10 -40 -31 -49 -50 -9 -18 -30 -40 -47 -49 -16 -8 -41 -33 -54 -54 -13 -21 -37 -43 -54 -50 -16 -7 -36 -27 -46 -47 -10 -22 -29 -40 -50 -49 -21 -9 -38 -26 -46 -45 -29 -69 -88 -72 -128 -7 -12 18 -33 39 -47 45 -14 7 -34 26 -45 44 -10 18 -38 44 -60 58 -22 14 -43 35 -46 47 -4 13 -23 32 -43 44 -20 11 -48 38 -64 60 -15 22 -35 43 -45 46 -20 7 -52 38 -52 51 0 5 -11 18 -25 30 -14 12 -25 19 -25 16 0 -3 -31 27 -70 66 -38 40 -68 76 -65 80 2 3 -7 19 -19 35 -20 25 -30 29 -75 29 -40 0 -56 -5 -74 -22 l-22 -23 2 -782 c3 -882 2 -817 11 -817 19 0 71 -59 82 -93 16 -51 49 -67 125 -61 33 3 134 7 225 8 161 3 280 21 263 41 -5 4 -1 4 7 -1 16 -9 32 -12 90 -19 19 -2 35 -4 35 -5 0 -9 258 -20 653 -27 357 -7 384 -3 415 62 9 19 29 41 46 49 16 9 34 29 40 47 15 44 16 1753 0 1798 -16 45 -56 63 -137 60 -37 -2 -81 -7 -97 -12z" transform="translate(0.000000,290.000000) scale(0.100000,-0.100000)"/></g></svg>